<svg width="29" height="29" viewBox="0 0 29 29" fill="none" xmlns="http://www.w3.org/2000/svg">
<g clip-path="url(#clip0_28_16)">
<path d="M19.3928 15.3702C18.0878 13.3345 15.8653 12.1189 13.4475 12.1189C11.0297 12.1189 8.80718 13.3345 7.50245 15.3702L4.35801 20.2756C3.8363 21.0893 3.59557 22.0297 3.66173 22.9941C3.72788 23.9588 4.09494 24.8571 4.72308 25.5925C5.35166 26.3273 6.18224 26.8295 7.12499 27.045C8.06775 27.2605 9.03418 27.1685 9.91963 26.7793L9.97893 26.753C12.2069 25.7932 14.7529 25.802 16.9752 26.7793C17.5484 27.0313 18.1558 27.1587 18.7686 27.1587C19.1018 27.1587 19.437 27.1209 19.7691 27.0452C20.7119 26.83 21.5425 26.3277 22.1713 25.5927C22.7996 24.8579 23.1669 23.9594 23.2333 22.9945C23.2997 22.0297 23.0589 21.0896 22.5372 20.2754L19.3928 15.3702Z" fill="#F52456"/>
<path d="M5.20496 15.3637C6.14041 15.0044 6.85107 14.2506 7.20596 13.241C7.54382 12.2803 7.51616 11.1957 7.12786 10.1868C6.73934 9.17858 6.03266 8.35552 5.13792 7.86899C4.19804 7.35812 3.16545 7.27492 2.23154 7.6349C0.35267 8.35729 -0.509551 10.6791 0.309747 12.8118C0.964211 14.5092 2.49063 15.5807 4.03387 15.5807C4.42792 15.5807 4.82307 15.5108 5.20496 15.3637Z" fill="#F52456"/>
<path d="M11.3062 11.5207C13.655 11.5207 15.566 9.34356 15.566 6.66751C15.566 3.9908 13.655 1.81323 11.3062 1.81323C8.95761 1.81323 7.04688 3.9908 7.04688 6.66751C7.04688 9.34356 8.95761 11.5207 11.3062 11.5207Z" fill="#F52456"/>
<path d="M18.6629 12.7129H18.6631C19.0244 12.8328 19.393 12.8901 19.7601 12.8901C21.473 12.8901 23.1423 11.6434 23.7793 9.72731C24.1462 8.62436 24.122 7.45814 23.7114 6.4437C23.2817 5.38169 22.4854 4.61084 21.469 4.27299C20.4524 3.93514 19.353 4.07608 18.373 4.66948C17.4369 5.23633 16.7196 6.15607 16.3532 7.25901C15.5799 9.58571 16.6161 12.0323 18.6629 12.7129Z" fill="#F52456"/>
<path d="M27.6335 12.1467L27.6329 12.1461C26.0131 10.9495 23.5906 11.4681 22.2323 13.3028C20.8754 15.1383 21.0876 17.6059 22.7049 18.8033C23.2948 19.2403 23.9917 19.4492 24.705 19.4492C25.9482 19.4492 27.2417 18.8146 28.1063 17.6477C29.4631 15.8122 29.2511 13.3446 27.6335 12.1467Z" fill="#F52456"/>
</g>
<defs>
<clipPath id="clip0_28_16">
<rect width="29" height="29" fill="white" transform="translate(0 0.000732422)"/>
</clipPath>
</defs>
</svg>
