<svg width="18" height="18" viewBox="0 0 18 18" fill="none" xmlns="http://www.w3.org/2000/svg">
<path d="M5.79941 12.0002H5.80023C5.80092 12.0002 5.80161 12 5.80229 12H15.3633C15.5987 12 15.8056 11.8223 15.8703 11.5648L17.9797 3.16484C18.0251 2.98375 17.9933 2.78906 17.8937 2.63875C17.794 2.48844 17.6381 2.4 17.4727 2.4H4.58322L4.20625 0.469844C4.15256 0.195312 3.9386 0 3.69141 0H0.527344C0.236069 0 0 0.268594 0 0.6C0 0.931406 0.236069 1.2 0.527344 1.2H3.26843C3.33518 1.54203 5.07239 10.4367 5.17236 10.9484C4.61192 11.2256 4.21875 11.8614 4.21875 12.6C4.21875 13.5925 4.92847 14.4 5.80078 14.4H15.3633C15.6546 14.4 15.8906 14.1314 15.8906 13.8C15.8906 13.4686 15.6546 13.2 15.3633 13.2H5.80078C5.51006 13.2 5.27344 12.9308 5.27344 12.6C5.27344 12.2697 5.50923 12.0009 5.79941 12.0002ZM16.7735 3.6L14.9654 10.8H6.22376L4.81751 3.6H16.7735Z" fill="white"/>
<path d="M5.27344 16.2C5.27344 17.1925 5.98315 18 6.85547 18C7.72778 18 8.4375 17.1925 8.4375 16.2C8.4375 15.2075 7.72778 14.4 6.85547 14.4C5.98315 14.4 5.27344 15.2075 5.27344 16.2ZM6.85547 15.6C7.14619 15.6 7.38281 15.8692 7.38281 16.2C7.38281 16.5308 7.14619 16.8 6.85547 16.8C6.56474 16.8 6.32812 16.5308 6.32812 16.2C6.32812 15.8692 6.56474 15.6 6.85547 15.6Z" fill="white"/>
<path d="M12.7266 16.2C12.7266 17.1925 13.4363 18 14.3086 18C15.1809 18 15.8906 17.1925 15.8906 16.2C15.8906 15.2075 15.1809 14.4 14.3086 14.4C13.4363 14.4 12.7266 15.2075 12.7266 16.2ZM14.3086 15.6C14.5993 15.6 14.8359 15.8692 14.8359 16.2C14.8359 16.5308 14.5993 16.8 14.3086 16.8C14.0179 16.8 13.7812 16.5308 13.7812 16.2C13.7812 15.8692 14.0179 15.6 14.3086 15.6Z" fill="white"/>
</svg>
