<svg width="209" height="81" viewBox="0 0 209 81" fill="none" xmlns="http://www.w3.org/2000/svg">
<g filter="url(#filter0_d_39_129)">
<path d="M15 19C15 15.134 18.134 12 22 12H54C57.866 12 61 15.134 61 19V52.1429C61 56.0088 57.866 59.1429 54 59.1429H40.9922C39.7186 59.1429 38.469 59.4904 37.3782 60.148L33.9128 62.2371C31.7706 63.5285 29.0013 63.0168 27.4621 61.045C26.525 59.8445 25.0871 59.1429 23.5643 59.1429H22C18.134 59.1429 15 56.0089 15 52.1429V19Z" fill="black"/>
</g>
<path d="M85.22 27H89.94V41H85.22V27ZM80.86 41H76.14V27H80.86V41ZM85.54 35.84H80.54V31.96H85.54V35.84ZM91.9942 41L98.1142 27H102.754L108.874 41H103.994L99.4742 29.24H101.314L96.7942 41H91.9942ZM95.6342 38.56L96.8342 35.16H103.274L104.474 38.56H95.6342ZM110.927 41V27H117.667C118.974 27 120.101 27.2133 121.047 27.64C122.007 28.0667 122.747 28.68 123.267 29.48C123.787 30.2667 124.047 31.2 124.047 32.28C124.047 33.36 123.787 34.2933 123.267 35.08C122.747 35.8667 122.007 36.48 121.047 36.92C120.101 37.3467 118.974 37.56 117.667 37.56H113.547L115.647 35.54V41H110.927ZM115.647 36.06L113.547 33.92H117.367C118.021 33.92 118.501 33.7733 118.807 33.48C119.127 33.1867 119.287 32.7867 119.287 32.28C119.287 31.7733 119.127 31.3733 118.807 31.08C118.501 30.7867 118.021 30.64 117.367 30.64H113.547L115.647 28.5V36.06ZM126.895 41V27H133.635C134.942 27 136.069 27.2133 137.015 27.64C137.975 28.0667 138.715 28.68 139.235 29.48C139.755 30.2667 140.015 31.2 140.015 32.28C140.015 33.36 139.755 34.2933 139.235 35.08C138.715 35.8667 137.975 36.48 137.015 36.92C136.069 37.3467 134.942 37.56 133.635 37.56H129.515L131.615 35.54V41H126.895ZM131.615 36.06L129.515 33.92H133.335C133.989 33.92 134.469 33.7733 134.775 33.48C135.095 33.1867 135.255 32.7867 135.255 32.28C135.255 31.7733 135.095 31.3733 134.775 31.08C134.469 30.7867 133.989 30.64 133.335 30.64H129.515L131.615 28.5V36.06ZM146.463 41V34.86L147.543 37.68L141.183 27H146.163L150.463 34.3H147.563L151.903 27H156.463L150.143 37.68L151.183 34.86V41H146.463ZM165.659 41V27H172.399C173.705 27 174.832 27.2133 175.779 27.64C176.739 28.0667 177.479 28.68 177.999 29.48C178.519 30.2667 178.779 31.2 178.779 32.28C178.779 33.36 178.519 34.2933 177.999 35.08C177.479 35.8667 176.739 36.48 175.779 36.92C174.832 37.3467 173.705 37.56 172.399 37.56H168.279L170.379 35.54V41H165.659ZM170.379 36.06L168.279 33.92H172.099C172.752 33.92 173.232 33.7733 173.539 33.48C173.859 33.1867 174.019 32.7867 174.019 32.28C174.019 31.7733 173.859 31.3733 173.539 31.08C173.232 30.7867 172.752 30.64 172.099 30.64H168.279L170.379 28.5V36.06ZM185.947 32.2H192.187V35.6H185.947V32.2ZM186.267 37.44H193.267V41H181.627V27H193.007V30.56H186.267V37.44ZM199.424 41V30.66H195.324V27H208.244V30.66H204.144V41H199.424Z" fill="white"/>
<path d="M42.3028 35.4802C41.4452 33.3913 39.6478 31.9193 37.4945 31.543C35.3411 31.1666 33.1799 31.9467 31.7132 33.6294L28.1787 37.684C27.5923 38.3567 27.2372 39.1903 27.1518 40.094C27.0663 40.9979 27.2588 41.8871 27.7081 42.6662C28.158 43.4447 28.8225 44.0392 29.6299 44.3856C30.4373 44.732 31.3118 44.7971 32.1586 44.5744L32.2153 44.5593C34.3432 44.017 36.6093 44.4215 38.4422 45.6727C38.9151 45.9954 39.4369 46.208 39.9827 46.3034C40.2795 46.3552 40.5837 46.3724 40.8908 46.354C41.7626 46.3013 42.5775 45.9653 43.2475 45.3823C43.917 44.7995 44.3786 44.0243 44.5821 43.1408C44.7856 42.2573 44.7119 41.349 44.3691 40.5136L42.3028 35.4802Z" fill="#F4CB38"/>
<path d="M29.668 33.2657C30.5549 33.0784 31.3007 32.4907 31.7678 31.6108C32.2125 30.7734 32.3501 29.7644 32.1553 28.7694C31.9602 27.7749 31.454 26.9025 30.7299 26.3125C29.9693 25.693 29.0622 25.4552 28.1765 25.6433C26.3951 26.02 25.2798 28.0366 25.6903 30.1397C26.0191 31.814 27.2182 33.0442 28.5926 33.2844C28.9435 33.3458 29.3059 33.3425 29.668 33.2657Z" fill="#F4CB38"/>
<path d="M35.6769 30.6555C37.7688 31.0211 39.7965 29.3018 40.197 26.8228C40.5975 24.3432 39.2215 22.0286 37.1297 21.663C35.038 21.2974 33.0104 23.0172 32.6099 25.4967C32.2094 27.9757 33.5853 30.2899 35.6769 30.6555Z" fill="#F4CB38"/>
<path d="M42.0503 32.9049L42.0505 32.9049C42.3544 33.0723 42.6741 33.1827 43.001 33.2399C44.5265 33.5065 46.1998 32.6114 47.0539 30.9356C47.5456 29.971 47.6987 28.8869 47.4848 27.8833C47.261 26.8326 46.6672 25.9946 45.8125 25.5234C44.9577 25.0522 43.9574 25.0116 42.9959 25.4088C42.0774 25.7882 41.3009 26.5285 40.8095 27.4932C39.7727 29.5282 40.3293 31.9559 42.0503 32.9049Z" fill="#F4CB38"/>
<path d="M50.1244 33.7769L50.1239 33.7761C48.8604 32.4156 46.6253 32.5189 45.1411 34.007C43.6579 35.4961 43.4776 37.815 44.7388 39.176C45.1987 39.6726 45.7882 39.9746 46.4235 40.0856C47.5307 40.2791 48.7776 39.8926 49.7222 38.9463C51.2052 37.4572 51.3857 35.1383 50.1244 33.7769Z" fill="#F4CB38"/>
<defs>
<filter id="filter0_d_39_129" x="0" y="0" width="76" height="80.9473" filterUnits="userSpaceOnUse" color-interpolation-filters="sRGB">
<feFlood flood-opacity="0" result="BackgroundImageFix"/>
<feColorMatrix in="SourceAlpha" type="matrix" values="0 0 0 0 0 0 0 0 0 0 0 0 0 0 0 0 0 0 127 0" result="hardAlpha"/>
<feOffset dy="3"/>
<feGaussianBlur stdDeviation="7.5"/>
<feComposite in2="hardAlpha" operator="out"/>
<feColorMatrix type="matrix" values="0 0 0 0 1 0 0 0 0 1 0 0 0 0 1 0 0 0 0.33 0"/>
<feBlend mode="normal" in2="BackgroundImageFix" result="effect1_dropShadow_39_129"/>
<feBlend mode="normal" in="SourceGraphic" in2="effect1_dropShadow_39_129" result="shape"/>
</filter>
</defs>
</svg>
