<svg width="194" height="60" viewBox="0 0 194 60" fill="none" xmlns="http://www.w3.org/2000/svg">
<path d="M0 7C0 3.13401 3.13401 0 7 0H39C42.866 0 46 3.13401 46 7V46.8776C46 50.7435 42.866 53.8776 39 53.8776H26.2234C24.805 53.8776 23.42 54.3085 22.252 55.1132L19.1605 57.2432C16.9532 58.7639 13.9303 58.2009 12.4184 55.9875V55.9875C11.5166 54.6672 10.021 53.8776 8.42211 53.8776H7C3.13401 53.8776 0 50.7435 0 46.8776V7Z" fill="black"/>
<path d="M74.94 16.4286V30.4286H70.22V25.2686H65.86V30.4286H61.14V16.4286H65.86V21.3886H70.22V16.4286H74.94ZM88.0542 27.9886H82.7342L81.7942 30.4286H76.9942L83.1142 16.4286H87.7542L93.8742 30.4286H88.9942L88.0542 27.9886ZM86.7542 24.5886L85.3942 21.0686L84.0342 24.5886H86.7542ZM102.667 16.4286C103.961 16.4286 105.087 16.6419 106.047 17.0686C107.007 17.4952 107.747 18.1086 108.267 18.9086C108.787 19.7086 109.047 20.6419 109.047 21.7086C109.047 22.7752 108.787 23.7086 108.267 24.5086C107.747 25.3086 107.007 25.9219 106.047 26.3486C105.087 26.7752 103.961 26.9886 102.667 26.9886H100.647V30.4286H95.9275V16.4286H102.667ZM102.367 23.3486C103.007 23.3486 103.487 23.2086 103.807 22.9286C104.127 22.6352 104.287 22.2286 104.287 21.7086C104.287 21.1886 104.127 20.7886 103.807 20.5086C103.487 20.2152 103.007 20.0686 102.367 20.0686H100.647V23.3486H102.367ZM118.635 16.4286C119.929 16.4286 121.055 16.6419 122.015 17.0686C122.975 17.4952 123.715 18.1086 124.235 18.9086C124.755 19.7086 125.015 20.6419 125.015 21.7086C125.015 22.7752 124.755 23.7086 124.235 24.5086C123.715 25.3086 122.975 25.9219 122.015 26.3486C121.055 26.7752 119.929 26.9886 118.635 26.9886H116.615V30.4286H111.895V16.4286H118.635ZM118.335 23.3486C118.975 23.3486 119.455 23.2086 119.775 22.9286C120.095 22.6352 120.255 22.2286 120.255 21.7086C120.255 21.1886 120.095 20.7886 119.775 20.5086C119.455 20.2152 118.975 20.0686 118.335 20.0686H116.615V23.3486H118.335ZM136.183 25.3486V30.4286H131.463V25.2886L126.183 16.4286H131.163L134.023 21.2686L136.903 16.4286H141.463L136.183 25.3486ZM157.399 16.4286C158.692 16.4286 159.819 16.6419 160.779 17.0686C161.739 17.4952 162.479 18.1086 162.999 18.9086C163.519 19.7086 163.779 20.6419 163.779 21.7086C163.779 22.7752 163.519 23.7086 162.999 24.5086C162.479 25.3086 161.739 25.9219 160.779 26.3486C159.819 26.7752 158.692 26.9886 157.399 26.9886H155.379V30.4286H150.659V16.4286H157.399ZM157.099 23.3486C157.739 23.3486 158.219 23.2086 158.539 22.9286C158.859 22.6352 159.019 22.2286 159.019 21.7086C159.019 21.1886 158.859 20.7886 158.539 20.5086C158.219 20.2152 157.739 20.0686 157.099 20.0686H155.379V23.3486H157.099ZM178.267 26.8686V30.4286H166.627V16.4286H178.007V19.9886H171.267V21.6286H177.187V25.0286H171.267V26.8686H178.267ZM184.424 20.0886H180.324V16.4286H193.244V20.0886H189.144V30.4286H184.424V20.0886Z" fill="black"/>
<path d="M27.3028 26.8345C26.4452 24.4472 24.6478 22.7649 22.4945 22.3348C20.3411 21.9047 18.1799 22.7962 16.7132 24.7193L13.1787 29.3532C12.5923 30.1219 12.2372 31.0746 12.1518 32.1074C12.0663 33.1404 12.2588 34.1567 12.7081 35.0471C13.158 35.9368 13.8225 36.6163 14.6299 37.0121C15.4373 37.408 16.3118 37.4824 17.1586 37.2279L17.2153 37.2106C19.3432 36.5909 21.6093 37.0531 23.4422 38.4831C23.9151 38.8519 24.4369 39.0948 24.9827 39.2038C25.2795 39.2631 25.5837 39.2827 25.8908 39.2617C26.7626 39.2015 27.5775 38.8175 28.2475 38.1512C28.917 37.4851 29.3786 36.5992 29.5821 35.5895C29.7856 34.5798 29.7119 33.5417 29.3691 32.5869L27.3028 26.8345Z" fill="#F4CB38"/>
<path d="M14.668 24.3038C15.5549 24.0898 16.3007 23.4182 16.7678 22.4125C17.2125 21.4556 17.3501 20.3024 17.1553 19.1652C16.9602 18.0287 16.454 17.0316 15.7299 16.3574C14.9693 15.6493 14.0622 15.3776 13.1765 15.5925C11.3951 16.0231 10.2798 18.3278 10.6903 20.7313C11.0191 22.6448 12.2182 24.0507 13.5926 24.3253C13.9435 24.3954 14.3059 24.3917 14.668 24.3038Z" fill="#F4CB38"/>
<path d="M20.6769 21.3205C22.7688 21.7384 24.7965 19.7734 25.197 16.9404C25.5975 14.1066 24.2215 11.4613 22.1297 11.0434C20.038 10.6256 18.0104 12.5911 17.6099 15.4249C17.2094 18.2579 18.5853 20.9027 20.6769 21.3205Z" fill="#F4CB38"/>
<path d="M27.0503 23.8915L27.0505 23.8916C27.3544 24.0828 27.6741 24.209 28.001 24.2743C29.5265 24.5791 31.1998 23.5561 32.0539 21.6409C32.5456 20.5385 32.6987 19.2996 32.4848 18.1526C32.261 16.9518 31.6672 15.9941 30.8125 15.4556C29.9577 14.917 28.9574 14.8707 27.9959 15.3246C27.0774 15.7581 26.3009 16.6042 25.8095 17.7067C24.7727 20.0324 25.3293 22.8069 27.0503 23.8915Z" fill="#F4CB38"/>
<path d="M35.1244 24.8877L35.1239 24.8869C33.8604 23.332 31.6253 23.4501 30.1411 25.1508C28.6579 26.8526 28.4776 29.5028 29.7388 31.0582C30.1987 31.6257 30.7882 31.9708 31.4235 32.0977C32.5307 32.3189 33.7776 31.8772 34.7222 30.7956C36.2052 29.0938 36.3857 26.4436 35.1244 24.8877Z" fill="#F4CB38"/>
</svg>
