<?xml version="1.0" encoding="utf-8"?><svg viewBox="0 0 448 512" xmlns="http://www.w3.org/2000/svg" xmlns:xlink="http://www.w3.org/1999/xlink"><style>:root>svg{display:none}:root>svg:target{display:block}</style><svg viewBox="0 0 448 512" id="arrow-left" xmlns="http://www.w3.org/2000/svg"><!--! Font Awesome Pro 6.2.1 by @fontawesome - https://fontawesome.com License - https://fontawesome.com/license (Commercial License) Copyright 2022 Fonticons, Inc.--><path d="M9.4 233.4c-12.5 12.5-12.5 32.8 0 45.3l160 160c12.5 12.5 32.8 12.5 45.3 0s12.5-32.8 0-45.3L109.2 288H416c17.7 0 32-14.3 32-32s-14.3-32-32-32H109.3l105.3-105.4c12.5-12.5 12.5-32.8 0-45.3s-32.8-12.5-45.3 0l-160 160z"/></svg><svg viewBox="0 0 448 512" id="arrow-right" xmlns="http://www.w3.org/2000/svg"><!--! Font Awesome Pro 6.2.1 by @fontawesome - https://fontawesome.com License - https://fontawesome.com/license (Commercial License) Copyright 2022 Fonticons, Inc.--><path d="M438.6 278.6c12.5-12.5 12.5-32.8 0-45.3l-160-160c-12.5-12.5-32.8-12.5-45.3 0s-12.5 32.8 0 45.3L338.8 224H32c-17.7 0-32 14.3-32 32s14.3 32 32 32h306.7L233.4 393.4c-12.5 12.5-12.5 32.8 0 45.3s32.8 12.5 45.3 0l160-160z"/></svg><svg viewBox="0 0 29 29" id="paw" xmlns="http://www.w3.org/2000/svg"><g clip-path="url(#ca)"><path d="M19.393 15.37a7.032 7.032 0 00-5.946-3.251 7.032 7.032 0 00-5.945 3.251l-3.144 4.906a4.44 4.44 0 00-.696 2.718 4.44 4.44 0 001.061 2.599 4.44 4.44 0 002.402 1.452c.943.215 1.91.123 2.795-.266l.059-.026a8.786 8.786 0 016.996.026 4.445 4.445 0 002.794.266 4.44 4.44 0 002.402-1.452 4.439 4.439 0 001.062-2.599 4.44 4.44 0 00-.696-2.719l-3.144-4.905zm-14.188-.006c.935-.36 1.646-1.113 2.001-2.123.338-.96.31-2.045-.078-3.054-.389-1.008-1.095-1.831-1.99-2.318-.94-.51-1.973-.594-2.906-.234C.352 8.357-.51 10.679.31 12.812c.654 1.697 2.18 2.769 3.724 2.769.394 0 .79-.07 1.171-.217zm6.101-3.844c2.349 0 4.26-2.176 4.26-4.852 0-2.677-1.911-4.855-4.26-4.855-2.348 0-4.26 2.178-4.26 4.855 0 2.676 1.912 4.853 4.26 4.853zm7.357 1.193c.361.12.73.177 1.097.177 1.713 0 3.382-1.247 4.02-3.163.366-1.103.342-2.269-.069-3.283-.43-1.062-1.226-1.833-2.242-2.171-1.017-.338-2.116-.197-3.096.396-.936.567-1.653 1.487-2.02 2.59-.773 2.327.263 4.773 2.31 5.454zm8.971-.566h-.001c-1.62-1.197-4.042-.679-5.4 1.156-1.358 1.835-1.145 4.303.472 5.5a3.33 3.33 0 002 .646c1.243 0 2.537-.634 3.401-1.801 1.357-1.836 1.145-4.303-.473-5.501z"/></g><defs><clipPath id="ca"><path d="M0 0h29v29H0z"/></clipPath></defs></svg><svg viewBox="0 0 17 17" id="phone" xmlns="http://www.w3.org/2000/svg"><path d="M15.636 11.159a9.65 9.65 0 01-3.031-.483c-.475-.162-1.058-.014-1.348.284l-1.911 1.443c-2.217-1.184-3.583-2.549-4.75-4.749l1.4-1.861c.365-.364.495-.895.339-1.393a9.667 9.667 0 01-.485-3.036C5.85.612 5.238 0 4.486 0H1.364C.612 0 0 .612 0 1.364 0 9.986 7.014 17 15.636 17c.752 0 1.364-.612 1.364-1.364v-3.113c0-.752-.612-1.364-1.364-1.364z"/></svg></svg>