<svg width="40" height="23" viewBox="0 0 40 23" fill="none" xmlns="http://www.w3.org/2000/svg">
<path d="M23.4505 0.550619C22.7181 -0.182399 21.5316 -0.182774 20.7987 0.55076L16.5661 4.79114C15.2947 3.83608 13.4612 3.91895 12.2811 5.09957L8.60312 8.77713C8.3357 8.70813 8.06041 8.67288 7.78118 8.67288C6.12629 8.67288 4.75367 9.90422 4.53144 11.4989C4.44351 11.4899 4.35482 11.4853 4.26562 11.4853C2.84407 11.4853 1.68754 12.6419 1.68754 14.0634C1.68754 14.142 1.69134 14.2202 1.69832 14.2978H0.468766C0.316284 14.2978 0.173365 14.3719 0.0855228 14.4966C-0.00227255 14.6212 -0.0239753 14.7808 0.0273988 14.9244L2.5586 22.0024C2.62531 22.1888 2.80193 22.3133 2.99997 22.3133H6.37491C6.63375 22.3133 6.84365 22.1034 6.84365 21.8445C6.84365 21.3276 7.26421 20.907 7.78113 20.907H9.89052C10.1494 20.907 10.3593 20.6972 10.3593 20.4383C10.3593 20.1794 10.1494 19.9696 9.89052 19.9696H7.78113C6.90909 19.9696 6.17415 20.568 5.96551 21.3758H3.33015L1.13419 15.2353H22.8654L20.6694 21.3758H18.0341C17.8254 20.568 17.0905 19.9696 16.2184 19.9696H14.1091C13.8503 19.9696 13.6404 20.1794 13.6404 20.4383C13.6404 20.6972 13.8503 20.907 14.1091 20.907H16.2185C16.7354 20.907 17.156 21.3276 17.156 21.8445C17.156 22.1034 17.3659 22.3133 17.6247 22.3133H20.9996C21.1977 22.3133 21.3743 22.1888 21.441 22.0024L23.9722 14.9244C24.0236 14.7808 24.0019 14.6212 23.9141 14.4966C23.8263 14.3719 23.6833 14.2978 23.5309 14.2978H22.2781C22.0544 12.7412 20.7344 11.5349 19.1281 11.4878C20.0988 10.3076 20.1081 8.62751 19.2179 7.44248L23.4501 3.20196C24.1828 2.46984 24.1837 1.28322 23.4505 0.550619ZM21.3275 14.2978H2.64185C2.63088 14.2206 2.62498 14.1424 2.62498 14.0634C2.62498 13.1588 3.36095 12.4228 4.26557 12.4228C4.45415 12.4228 4.63874 12.4544 4.81409 12.5167C5.12473 12.627 5.45111 12.3899 5.43949 12.0585C5.39027 10.6733 6.48825 9.61037 7.78113 9.61037C9.08803 9.61037 10.1248 10.673 10.1248 11.9541C10.1248 12.213 10.3347 12.4228 10.5936 12.4228C10.8524 12.4228 11.0623 12.213 11.0623 11.9541C11.0623 11.6466 11.0202 11.3464 10.9377 11.0566C11.0964 11.0214 11.2609 11.009 11.4291 11.0217C11.8659 11.0565 12.2633 11.2605 12.548 11.596C12.7205 11.7991 13.0274 11.8178 13.2232 11.6372C13.6571 11.2369 14.2214 11.0165 14.8122 11.0165C15.8347 11.0165 16.7056 11.6751 17.0243 12.584C17.1256 12.8727 17.4728 12.9888 17.7273 12.8184C18.1216 12.5548 18.575 12.4227 19.0309 12.4227C20.1628 12.4228 21.1097 13.2293 21.3275 14.2978ZM22.7871 2.53921L18.2468 7.08835C18.0641 7.27144 18.0642 7.56796 18.2471 7.75091C19.163 8.66674 19.1633 10.1492 18.2471 11.0653L17.6305 11.6823C17.3028 11.1346 16.8204 10.692 16.249 10.412L16.9212 9.73979C17.1043 9.55674 17.1043 9.25993 16.9212 9.07684C16.7381 8.8938 16.4414 8.8938 16.2583 9.07684L15.2286 10.1065C15.0906 10.089 14.9515 10.0791 14.8123 10.0791C14.1359 10.0791 13.4843 10.2855 12.9371 10.6672C12.764 10.5238 12.574 10.4049 12.3715 10.3122L14.9328 7.75087C15.1158 7.56782 15.1158 7.27102 14.9328 7.08797C14.7497 6.90493 14.453 6.90493 14.2698 7.08797L11.2782 10.0796C11.0302 10.0814 10.7831 10.1188 10.5469 10.1903C10.2857 9.78268 9.93608 9.43623 9.52785 9.17805L12.9439 5.76237C13.8598 4.84617 15.3421 4.84603 16.2581 5.76237C16.4413 5.94565 16.7384 5.94546 16.9214 5.76214L21.4619 1.21319C21.8233 0.851552 22.4166 0.842317 22.7874 1.21347C23.1512 1.57693 23.1566 2.16993 22.7871 2.53921Z" fill="black"/>
<path d="M28 9.80073L32.2308 14.0007L39 7.00073" stroke="#32B71D"/>
</svg>
